<?xml version="1.0" standalone="no"?><!DOCTYPE svg PUBLIC "-//W3C//DTD SVG 1.1//EN" "http://www.w3.org/Graphics/SVG/1.1/DTD/svg11.dtd"><svg t="1693118487135" class="icon" viewBox="0 0 1024 1024" version="1.1" xmlns="http://www.w3.org/2000/svg" p-id="2750" xmlns:xlink="http://www.w3.org/1999/xlink" width="200" height="200"><path d="M815.686766 718.537241a59.859757 59.859757 0 0 0-45.151816-54.715778l-82.875664-20.859915a546.985778 546.985778 0 0 1-42.635826-12.595949l-12.935948-6.375974c0.024 1.203995-0.363999 2.41599-1.231995 3.363986-44.30782 48.351804-95.843611 48.443803-95.84361 48.443804h-46.023814s-51.535791-0.096-95.84361-48.443804a4.775981 4.775981 0 0 1-1.231995-3.363986l-10.811956 5.331978a525.053867 525.053867 0 0 1-47.035809 14.215943l-80.599673 20.287917a59.847757 59.847757 0 0 0-45.151816 54.715778l-15.443938 277.222874a17.27193 17.27193 0 0 0 17.24793 18.231926h603.765548a17.27993 17.27993 0 0 0 17.24793-18.231926l-15.443938-277.226874z" fill="#E8E6E6" p-id="2751"></path><path d="M539.527888 752.957101m-19.011923 0a19.011923 19.011923 0 1 0 38.023846 0 19.011923 19.011923 0 1 0-38.023846 0Z" fill="#FCBD4C" p-id="2752"></path><path d="M539.527888 844.21673m-19.011923 0a19.011923 19.011923 0 1 0 38.023846 0 19.011923 19.011923 0 1 0-38.023846 0Z" fill="#FCBD4C" p-id="2753"></path><path d="M539.527888 935.47236m-19.011923 0a19.011923 19.011923 0 1 0 38.023846 0 19.011923 19.011923 0 1 0-38.023846 0Z" fill="#FCBD4C" p-id="2754"></path><path d="M662.847387 331.314814v110.107553c0 0.327999-0.024 0.651997-0.024 0.979996 29.119882-1.831993 52.191788-25.963895 52.191788-55.543775-0.004-29.57188-23.059906-53.699782-52.167788-55.543774zM361.152613 441.426367V331.314814c-29.107882 1.843993-52.163788 25.967895-52.163788 55.543774 0 29.58388 23.071906 53.715782 52.191788 55.543775-0.004-0.323999-0.028-0.647997-0.028-0.975996z" fill="#F9D8B7" p-id="2755"></path><path d="M694.11126 256.667117H329.88874a7.911968 7.911968 0 0 0-7.911968 7.907968v32.183869c0 4.367982 3.539986 7.907968 7.911968 7.907968h364.21852a7.911968 7.911968 0 0 0 7.911968-7.907968v-32.183869a7.907968 7.907968 0 0 0-7.907968-7.907968z" fill="#FC5D4C" p-id="2756"></path><path d="M694.11126 304.670922h-31.263873v26.643892a55.475775 55.475775 0 0 1 31.447872 12.31195v-38.975842c-0.064 0.004-0.123999 0.02-0.183999 0.02z" fill="#E8B16D" p-id="2757"></path><path d="M361.152613 304.670922v136.755445c0 74.235698 60.179756 134.411454 134.415454 134.411454h32.867866c74.235698 0 134.411454-60.179756 134.411454-134.411454V304.670922H361.152613z" fill="#F9D8B7" p-id="2758"></path><path d="M329.88874 304.670922c-0.064 0-0.123999-0.016-0.183999-0.02v38.975842a55.475775 55.475775 0 0 1 31.447872-12.31195v-26.643892h-31.263873z" fill="#E8B16D" p-id="2759"></path><path d="M679.36732 176.483443c19.239922-14.547941 31.083874-38.347844 28.743883-64.827737-3.095987-35.043858-31.679871-63.331743-66.743729-66.159731a72.627705 72.627705 0 0 0-48.807801 13.719944C577.511734 30.008038 547.119857 10.000119 512 10.000119c-35.119857 0-65.511734 20.007919-80.559673 49.2158a72.623705 72.623705 0 0 0-48.807801-13.719944c-35.063858 2.823989-63.651741 31.115874-66.743729 66.155731-2.33999 26.479892 9.503961 50.283796 28.747883 64.827737a9.379962 9.379962 0 0 1 3.451986 9.76796L330.480737 256.667117h363.038526l-17.603929-70.415714a9.375962 9.375962 0 0 1 3.451986-9.76796z" fill="#E8E6E6" p-id="2760"></path><path d="M630.523518 620.445639l-26.90389-24.783899a10.311958 10.311958 0 0 0-14.967939 1.087996c-7.719969 9.363962-22.439909 23.107906-44.159821 26.327893a11.107955 11.107955 0 0 0-9.483961 10.979955v41.735831s51.535791-0.096 95.84361-48.447804a4.90398 4.90398 0 0 0-0.327999-6.899972zM479.508132 623.081629c-21.719912-3.219987-36.439852-16.963931-44.159821-26.327893a10.307958 10.307958 0 0 0-14.967939-1.087996l-26.90389 24.783899a4.91198 4.91198 0 0 0-0.327999 6.907972c44.30782 48.351804 95.843611 48.447803 95.84361 48.447804v-41.735831a11.111955 11.111955 0 0 0-9.483961-10.987955z" fill="#FC5D4C" p-id="2761"></path><path d="M479.508132 623.081629a11.103955 11.103955 0 0 1 9.479961 10.979955v6.219975h46.023814v-6.219975a11.099955 11.099955 0 0 1 9.479961-10.979955c21.203914-3.143987 35.715855-16.303934 43.575823-25.639896a34.167861 34.167861 0 0 1-6.191975-19.511921v-13.163946a133.943456 133.943456 0 0 1-53.443783 11.071955h-32.867866c-18.995923 0-37.059849-3.963984-53.443783-11.071955v13.163946a34.167861 34.167861 0 0 1-6.191975 19.511921c7.863968 9.335962 22.375909 22.495909 43.579823 25.639896z" fill="#F9D8B7" p-id="2762"></path><path d="M528.299934 433.394399c-8.895964-0.243999-16.303934 6.767973-16.303934 15.667937v10.015959a9.183963 9.183963 0 0 0 9.183963 9.175963c13.595945 0.04 39.531839 1.951992 58.775761 14.411941 13.687944 8.863964 28.831883-8.695965 18.427925-21.063914-12.699948-15.099939-34.111861-27.219889-70.083715-28.207886z" fill="#E8B16D" p-id="2763"></path><path d="M512 459.078295v-10.015959c0-8.899964-7.40397-15.911935-16.303934-15.667937-35.971854 0.987996-57.383767 13.111947-70.083715 28.207886-10.399958 12.35995 4.723981 29.935878 18.423925 21.067914 19.243922-12.459949 45.175816-14.375942 58.771761-14.415941A9.187963 9.187963 0 0 0 512 459.078295z" fill="#E8B16D" p-id="2764"></path><path d="M488.988093 640.281559h46.019814v35.515856h-46.019814z" fill="#E8E6E6" p-id="2765"></path><path d="M813.882774 1023.996H210.117226a27.395889 27.395889 0 0 1-19.815919-8.531965 27.379889 27.379889 0 0 1-7.41597-20.255918l15.439937-277.222874c1.707993-30.691875 22.887907-56.351771 52.695786-63.85574l80.599673-20.287918a515.577905 515.577905 0 0 0 45.587815-13.747944l10.279958-5.07198a9.999959 9.999959 0 0 1 14.191942 6.831973c40.591835 43.355824 86.855647 43.943821 87.323645 43.943821h46.003814c0.415998-0.004 47.015809-0.931996 87.307645-43.943821a9.999959 9.999959 0 0 1 14.191942-6.831973l12.34795 6.087976a539.11781 539.11781 0 0 0 41.243832 12.15595l82.875664 20.859916a69.535718 69.535718 0 0 1 52.695786 63.85574l15.439937 277.222874a27.387889 27.387889 0 0 1-7.41597 20.255918 27.367889 27.367889 0 0 1-19.811919 8.535965zM388.372502 636.885573l-2.847988 1.403994a9.551961 9.551961 0 0 1-1.083996 0.455998 536.385821 536.385821 0 0 1-47.931805 14.483941l-80.599673 20.287918a49.627798 49.627798 0 0 0-37.607847 45.575815l-15.439937 277.222873a7.199971 7.199971 0 0 0 1.975992 5.399979 7.199971 7.199971 0 0 0 5.283978 2.27599h603.765548a7.199971 7.199971 0 0 0 5.283978-2.27599 7.199971 7.199971 0 0 0 1.975992-5.399979l-15.439937-277.222873a49.631798 49.631798 0 0 0-37.607847-45.571815l-82.875664-20.859915a558.185732 558.185732 0 0 1-43.415823-12.827948 9.85196 9.85196 0 0 1-1.199995-0.499998l-4.97198-2.45199c-46.123813 48.251804-98.3596 48.911801-100.599592 48.915801h-46.039813c-2.267991-0.004-54.499779-0.663997-100.623591-48.911801zM512.255999 511.210083a53.839781 53.839781 0 0 1-44.663819-23.743903 9.999959 9.999959 0 0 1 16.571933-11.195955 33.867862 33.867862 0 0 0 56.175772 0 9.999959 9.999959 0 0 1 16.571933 11.195955 53.827781 53.827781 0 0 1-44.655819 23.743903zM587.523693 359.058701c-1.583994 0-3.191987-0.375998-4.687981-1.171995-2.37599-1.263995-7.939968-2.739989-15.787936-2.739989s-13.411946 1.475994-15.787935 2.739989a9.999959 9.999959 0 1 1-9.391962-17.655928c6.071975-3.231987 15.247938-5.083979 25.179897-5.08398 9.92796 0 19.103922 1.851992 25.175898 5.08398a9.999959 9.999959 0 0 1-4.699981 18.827923zM477.42814 359.058701c-1.583994 0-3.191987-0.375998-4.687981-1.171995-2.37599-1.263995-7.939968-2.739989-15.787935-2.739989s-13.411946 1.475994-15.787936 2.739989a9.999959 9.999959 0 1 1-9.391962-17.655928c6.071975-3.231987 15.247938-5.083979 25.179898-5.08398s19.107922 1.851992 25.179897 5.08398a9.999959 9.999959 0 0 1-4.703981 18.827923zM458.584217 398.638541a11.999951 11.999951 0 0 1-11.999951-11.999952v-2.239991a11.999951 11.999951 0 1 1 23.999902 0v2.239991a11.999951 11.999951 0 0 1-11.999951 11.999952zM565.927781 400.354534a11.999951 11.999951 0 0 1-11.999951-11.999952v-2.239991a11.999951 11.999951 0 1 1 23.999902 0v2.239991a11.999951 11.999951 0 0 1-11.999951 11.999952z" fill="#231F20" p-id="2766"></path><path d="M717.559165 1023.996a9.999959 9.999959 0 0 1-9.999959-9.999959v-224.319089a9.999959 9.999959 0 1 1 19.999918 0v224.319089a9.999959 9.999959 0 0 1-9.999959 9.999959zM306.440835 1023.996a9.999959 9.999959 0 0 1-9.999959-9.999959v-224.319089a9.999959 9.999959 0 1 1 19.999918 0v224.319089a9.999959 9.999959 0 0 1-9.999959 9.999959zM421.04437 266.667077a9.999959 9.999959 0 0 1-9.99996-9.99996V204.663329a9.999959 9.999959 0 1 1 19.999919 0v52.003788a9.999959 9.999959 0 0 1-9.999959 9.99996zM509.052012 266.667077a9.999959 9.999959 0 0 1-9.999959-9.99996V204.663329a9.999959 9.999959 0 1 1 19.999918 0v52.003788a9.999959 9.999959 0 0 1-9.999959 9.99996zM597.059654 266.667077a9.999959 9.999959 0 0 1-9.999959-9.99996V204.663329a9.999959 9.999959 0 1 1 19.999919 0v52.003788a9.999959 9.999959 0 0 1-9.99996 9.99996zM488.988093 1023.996a9.999959 9.999959 0 0 1-9.999959-9.999959v-352.03857a9.999959 9.999959 0 1 1 19.999919 0v352.03857a9.999959 9.999959 0 0 1-9.99996 9.999959zM539.527888 781.968983c-15.999935 0-29.011882-13.011947-29.011882-29.011882s13.011947-29.011882 29.011882-29.011882 29.011882 13.011947 29.011882 29.011882-13.011947 29.011882-29.011882 29.011882z m0-38.023845c-4.96798 0-9.011963 4.043984-9.011963 9.011963s4.043984 9.011963 9.011963 9.011964 9.011963-4.043984 9.011964-9.011964-4.039984-9.011963-9.011964-9.011963zM539.527888 873.228613c-15.999935 0-29.011882-13.011947-29.011882-29.011883s13.011947-29.011882 29.011882-29.011882 29.011882 13.011947 29.011882 29.011882-13.011947 29.011882-29.011882 29.011883z m0-38.023846c-4.96798 0-9.011963 4.043984-9.011963 9.011963s4.043984 9.011963 9.011963 9.011964 9.011963-4.043984 9.011964-9.011964-4.039984-9.011963-9.011964-9.011963zM539.527888 964.484242c-15.999935 0-29.011882-13.011947-29.011882-29.011882s13.011947-29.011882 29.011882-29.011882 29.011882 13.011947 29.011882 29.011882-13.011947 29.011882-29.011882 29.011882z m0-38.023846c-4.96798 0-9.011963 4.043984-9.011963 9.011964s4.043984 9.011963 9.011963 9.011963 9.011963-4.043984 9.011964-9.011963-4.039984-9.011963-9.011964-9.011964zM662.823387 452.406322a9.999959 9.999959 0 0 1-9.999959-10.059959l0.02-0.783997 0.004-110.243552c0-2.759989 1.143995-5.399978 3.155987-7.29197a9.92796 9.92796 0 0 1 7.47597-2.687989c34.50386 2.183991 61.53575 30.963874 61.53575 65.523733 0 34.57586-27.04389 63.355743-61.56375 65.523734a11.091955 11.091955 0 0 1-0.627998 0.02z m10.02396-109.155556v87.219645c18.695924-5.799976 32.167869-23.263905 32.167869-43.607823-0.004-20.347917-13.475945-37.811846-32.167869-43.611822zM361.176613 452.406322c-0.207999 0-0.415998-0.004-0.627998-0.02-34.51986-2.167991-61.56375-30.951874-61.56375-65.523734 0-34.55986 27.02789-63.339743 61.53575-65.523733a9.991959 9.991959 0 0 1 10.631957 9.979959l0.024 110.967549a9.995959 9.995959 0 0 1-9.999959 10.119959z m-10.02396-109.155556c-18.691924 5.799976-32.167869 23.263905-32.167869 43.607822 0 20.343917 13.471945 37.807846 32.167869 43.607823V343.250766z" fill="#231F20" p-id="2767"></path><path d="M694.11126 314.670882H329.88874a17.931927 17.931927 0 0 1-17.911927-17.911928v-32.183869a17.927927 17.927927 0 0 1 17.911927-17.907927h364.22252a17.927927 17.927927 0 0 1 17.911927 17.907927v32.183869a17.935927 17.935927 0 0 1-17.911927 17.911928z m-362.130529-19.999919h360.042538v-28.003886H331.980731v28.003886z m362.130529-28.003886h0.04-0.04z" fill="#231F20" p-id="2768"></path><path d="M694.295259 353.626723a9.987959 9.987959 0 0 1-6.287974-2.223991 45.411816 45.411816 0 0 0-25.795895-10.107959 9.999959 9.999959 0 0 1-9.367962-9.979959v-26.643892a9.999959 9.999959 0 0 1 9.999959-9.999959h30.867875a9.999959 9.999959 0 0 1 10.583957 9.983959v38.975842a9.999959 9.999959 0 0 1-9.99996 9.995959z m-21.451912-31.015874a65.159735 65.159735 0 0 1 11.447953 3.539986v-11.479953h-11.447953v7.939967z" fill="#231F20" p-id="2769"></path><path d="M528.431933 585.83778h-32.867866c-79.631676 0-144.415413-64.783737-144.415414-144.415413V304.670922a9.999959 9.999959 0 0 1 9.99996-9.999959h301.690774a9.999959 9.999959 0 0 1 9.99996 9.999959v136.755445c0.004 79.631676-64.775737 144.411413-144.407414 144.411413z m-157.279361-271.166898v126.755485c0 68.599721 55.811773 124.415495 124.415495 124.415494h32.867866c68.599721 0 124.411495-55.811773 124.411495-124.415494V314.670882H371.152572z" fill="#231F20" p-id="2770"></path><path d="M329.704741 353.630723a9.999959 9.999959 0 0 1-9.99996-9.999959v-38.975842a9.991959 9.991959 0 0 1 10.579957-9.983959h30.863875a9.999959 9.999959 0 0 1 9.999959 9.999959v26.643892a9.999959 9.999959 0 0 1-9.367962 9.979959 45.391816 45.391816 0 0 0-25.791895 10.107959 9.95196 9.95196 0 0 1-6.283974 2.227991z m9.999959-38.959841v11.479953a64.823737 64.823737 0 0 1 11.447953-3.539986v-7.939967h-11.447953zM693.519263 266.667077H330.480737a9.999959 9.999959 0 0 1-9.70396-12.42395l17.507929-70.023715c-22.795907-17.399929-34.887858-44.823818-32.359869-73.443702 3.503986-39.691839 36.135853-72.039707 75.903692-75.247694a83.119662 83.119662 0 0 1 46.187812 9.74396A100.203593 100.203593 0 0 1 512 0.00016a100.219593 100.219593 0 0 1 83.983659 45.267816 83.067663 83.067663 0 0 1 46.187812-9.74396c39.763838 3.199987 72.395706 35.551856 75.903692 75.243694 2.52799 28.619884-9.563961 56.043772-32.359869 73.443702l17.503929 70.023715a9.995959 9.995959 0 0 1-1.819992 8.579965c-1.895992 2.43199-4.799981 3.851984-7.879968 3.851985z m-350.230578-19.999919h337.42263l-14.499941-57.991764a19.367921 19.367921 0 0 1 7.119971-20.167919c17.467929-13.203946 26.743891-34.127861 24.815899-55.971772-2.659989-30.103878-27.415889-54.639778-57.583766-57.071768-15.199938-1.207995-29.767879 2.867988-42.127829 11.843952a9.987959 9.987959 0 0 1-14.76394-3.511986C569.747765 36.784011 542.287877 20.000079 512 20.000079c-30.287877 0-57.751765 16.779932-71.671709 43.791822a9.999959 9.999959 0 0 1-14.76394 3.511986 62.347747 62.347747 0 0 0-42.127829-11.843952c-30.171877 2.43199-54.927777 26.96789-57.583766 57.071768-1.927992 21.843911 7.34797 42.767826 24.815899 55.975772a19.351921 19.351921 0 0 1 7.119971 20.171918l-14.499941 57.987765z m342.110611-62.207747c0-0.004 0-0.004 0 0zM535.007907 685.797374a9.995959 9.995959 0 0 1-9.99996-9.999959v-41.735831c0-10.375958 7.747969-19.347921 18.015927-20.871915 17.999927-2.667989 30.551876-13.871944 37.911846-22.799907a20.519917 20.519917 0 0 1 14.351942-7.39597 20.327917 20.327917 0 0 1 15.107938 5.307978l26.903891 24.783899c6.035975 5.559977 6.455974 14.987939 0.927996 21.019915-46.85581 51.135792-101.195589 51.67579-103.21958 51.69179z m53.643782-89.047638l7.715968 6.359974c-7.851968 9.523961-24.839899 26.071894-50.411795 29.859879a1.111995 1.111995 0 0 0-0.947996 1.087995v30.619876c15.515937-2.615989 46.535811-11.339954 74.955695-40.371836l-23.119906-21.295914-8.191966-6.259974z m35.099857 31.051874h0.04-0.04z m-0.008-0.008l0.008 0.004h-0.004l-0.004-0.004zM488.988093 685.797374h-0.015999c-2.283991-0.004-56.463771-0.687997-103.199581-51.68779a14.923939 14.923939 0 0 1 0.927996-21.019915l26.903891-24.783899a20.323917 20.323917 0 0 1 15.103938-5.311978 20.495917 20.495917 0 0 1 14.351942 7.39597c7.36397 8.927964 19.915919 20.131918 37.911846 22.799907 10.271958 1.523994 18.015927 10.495957 18.015927 20.871915v41.735831a10.007959 10.007959 0 0 1-9.99996 9.999959z m-84.951654-61.48375c28.411885 29.023882 59.419759 37.751847 74.951695 40.367836v-30.619876a1.111995 1.111995 0 0 0-0.947996-1.087995c-25.563896-3.791985-42.555827-20.335917-50.407795-29.859879l-7.251971-7.45197 6.775973 7.35597-23.119906 21.295914z" fill="#231F20" p-id="2771"></path><path d="M535.011907 650.281518h-46.023814a9.999959 9.999959 0 0 1-9.999959-9.999959v-6.219975a1.111995 1.111995 0 0 0-0.947996-1.087995c-23.855903-3.535986-40.227837-17.771928-49.755798-29.091882a9.999959 9.999959 0 0 1-0.563998-12.147951 24.119902 24.119902 0 0 0 4.403982-13.803944v-13.163946a9.999959 9.999959 0 0 1 13.979944-9.171963 123.503498 123.503498 0 0 0 49.463799 10.247958h32.867866c17.15593 0 33.795863-3.447986 49.463799-10.247958a10.007959 10.007959 0 0 1 13.979943 9.171963v13.163946c0 4.88798 1.519994 9.663961 4.399983 13.803944a9.999959 9.999959 0 0 1-0.559998 12.147951c-9.527961 11.319954-25.899895 25.555896-49.759798 29.091882a1.111995 1.111995 0 0 0-0.947996 1.087995v6.219975a9.999959 9.999959 0 0 1-9.999959 9.999959z m-36.367853-19.999919h26.715892c1.611993-8.707965 8.667965-15.759936 17.667928-17.09193 14.375942-2.131991 25.275897-9.73996 32.771867-17.17193a43.639823 43.639823 0 0 1-3.903984-16.847932 143.607417 143.607417 0 0 1-43.463824 6.671973h-32.867866c-14.89194 0-29.45588-2.239991-43.463824-6.671973a43.715822 43.715822 0 0 1-3.903984 16.847932c7.49997 7.43597 18.399925 15.043939 32.771867 17.17193 9.003963 1.331995 16.063935 8.387966 17.675928 17.09193zM587.751692 495.062149a24.287901 24.287901 0 0 1-13.227946-3.999984c-17.079931-11.059955-40.767834-12.767948-53.367783-12.807948-10.563957-0.032-19.155922-8.635965-19.155922-19.175922v-10.015959c0-6.967972 2.751989-13.483945 7.747968-18.339926a25.527896 25.527896 0 0 1 18.827924-7.32397c34.46386 0.943996 60.527754 11.631953 77.463685 31.763871 7.903968 9.395962 7.735969 22.403909-0.407998 31.631871-4.799981 5.443978-11.267954 8.267966-17.879928 8.267967z m-65.751733-36.803851c14.983939 0.116 42.391828 2.41599 63.395743 16.011935 1.947992 1.259995 3.711985 1.023996 5.239979-0.707997 0.907996-1.027996 2.127991-3.115987 0.099999-5.523977-13.099947-15.575937-34.199861-23.867903-62.707745-24.6479h-0.175999c-1.575994 0-3.047988 0.587998-4.155984 1.667993a5.559977 5.559977 0 0 0-1.691993 4.003984v9.195962z" fill="#231F20" p-id="2772"></path><path d="M436.244308 495.062149c-6.611973 0-13.075947-2.819989-17.871928-8.255967-8.147967-9.231962-8.315966-22.24391-0.411998-31.639871 16.935931-20.131918 42.999825-30.819875 77.463685-31.763871a25.799895 25.799895 0 0 1 18.827924 7.32397 25.383897 25.383897 0 0 1 7.747968 18.339926v10.015959c0 10.539957-8.591965 19.143922-19.159922 19.175922-12.603949 0.036-36.291853 1.747993-53.367783 12.807948a24.319901 24.319901 0 0 1-13.227946 3.995984z m59.907756-51.67179h-0.175999c-28.511884 0.779997-49.607798 9.075963-62.711745 24.6479-2.031992 2.41599-0.807997 4.499982 0.099999 5.531977 1.523994 1.727993 3.279987 1.967992 5.235979 0.699997 20.999915-13.599945 48.415803-15.899935 63.399743-16.015935v-9.195962a5.559977 5.559977 0 0 0-1.691994-4.003984 5.927976 5.927976 0 0 0-4.155983-1.663993zM535.007907 685.797374h-46.019814a9.999959 9.999959 0 0 1-9.999959-9.999959v-35.515856a9.999959 9.999959 0 0 1 9.999959-9.99996h46.019814a9.999959 9.999959 0 0 1 9.999959 9.99996v35.515856a9.999959 9.999959 0 0 1-9.999959 9.999959z m-36.019854-19.999919h26.019894v-15.515937h-26.019894v15.515937z" fill="#231F20" p-id="2773"></path></svg>